<svg width="173" height="66" viewBox="0 0 173 66" fill="none" xmlns="http://www.w3.org/2000/svg">
<path d="M158.692 35.5917C158.692 31.6296 158.815 27.7284 159.006 24.0589C158.412 24.0334 157.762 24.0046 157.036 23.9726C154.395 23.8561 152.349 21.6213 152.465 18.981C152.582 16.3407 154.817 14.2947 157.457 14.4111C158.3 14.4483 159.028 14.4807 159.675 14.5081C160.06 10.1004 160.48 6.49207 160.775 4.18146C161.108 1.55974 163.504 -0.294964 166.126 0.0388404C168.748 0.372662 170.603 2.76855 170.269 5.39027C170.004 7.47689 169.633 10.6549 169.283 14.5263C171.292 14.9857 172.849 16.7182 172.99 18.8804C173.16 21.4941 171.198 23.7542 168.596 23.9618C168.395 27.6525 168.264 31.5946 168.264 35.5917C168.264 51.7403 168.859 54.8732 170.163 60.0433C170.809 62.606 169.255 65.2073 166.692 65.8536C164.129 66.4998 161.528 64.9463 160.881 62.3836C159.294 56.0888 158.692 52.0436 158.692 35.5917ZM75.1981 5.04902C75.3556 2.41083 77.6222 0.399784 80.2606 0.557276C82.8991 0.714779 84.9103 2.98117 84.7528 5.61935C84.4996 9.85973 84.3548 14.8594 84.3206 20.5682C85.2898 19.1425 86.1895 17.8419 86.9249 16.7933C88.4424 14.6294 91.4269 14.1054 93.591 15.6228C95.755 17.1402 96.2791 20.1244 94.7616 22.2883C92.931 24.8985 90.1519 28.9751 87.8701 32.5613C88.7633 33.1886 89.8214 33.8717 90.9771 34.5759C93.9763 36.4034 97.3459 38.2014 99.517 39.2887C100.856 39.9592 101.743 41.1729 102.045 42.5287C102.25 40.8784 103.311 39.4271 104.854 38.744C104.76 38.0032 104.671 37.2511 104.587 36.4908C104.361 36.3219 104.146 36.1306 103.946 35.9169C102.218 34.0664 102.24 31.2094 103.944 29.3867C103.894 28.6969 103.846 28.0083 103.801 27.3228C103.274 19.2297 103.115 11.0863 103.107 5.84036C103.103 3.19747 105.242 1.05153 107.885 1.04728C110.528 1.04304 112.674 3.18209 112.679 5.82497C112.686 10.2985 112.806 16.9423 113.179 23.7907C114.774 23.5019 116.562 23.4949 118.538 23.9496C120.903 24.494 123.004 25.6187 124.492 27.4573C125.655 28.8934 126.233 30.5048 126.428 32.0532C126.432 31.885 126.438 31.7173 126.446 31.5501C126.63 27.5824 127.868 24.1866 129.042 21.5394C131.01 17.0991 135.01 13.977 138.854 12.7003C140.786 12.0586 143.127 11.7336 145.413 12.3715C147.892 13.0635 150.003 14.8366 150.939 17.5895L150.983 17.7213L151.034 17.8811C152.081 21.2338 151.97 24.4766 150.661 27.5916C149.415 30.5587 147.216 33.0815 144.741 35.3678C142.452 37.4833 140.131 38.6915 137.88 39.2431C137.96 39.3876 138.044 39.5332 138.131 39.6799C138.857 40.9025 140.122 41.5575 141.94 41.6699C142.841 41.7255 143.724 41.6252 144.428 41.4538C144.997 41.3152 145.241 41.1841 145.25 41.1861C147.304 39.642 150.228 39.9957 151.852 42.0125C153.509 44.0713 153.183 47.0837 151.124 48.7408C149.829 49.7835 148.139 50.4007 146.692 50.753C145.119 51.1361 143.273 51.3411 141.35 51.2223C137.52 50.9857 132.753 49.3726 129.899 44.5637C127.741 40.9256 126.714 37.4164 126.477 34.0938C126.233 37.3843 124.5 40.4779 122.393 42.3551C121.298 43.3302 119.95 44.0362 118.811 44.5453C117.863 44.969 116.841 45.3506 115.822 45.6909C115.886 45.9314 115.952 46.1639 116.019 46.3881C116.773 48.9209 115.332 51.586 112.799 52.3407C110.266 53.0954 107.601 51.6539 106.846 49.1211C106.728 48.7276 106.615 48.3187 106.505 47.8961C104.424 47.7707 102.597 46.285 102.124 44.1572C102.059 44.6839 101.904 45.2087 101.653 45.7103C100.469 48.0734 97.594 49.0296 95.2307 47.8461C92.8895 46.6736 89.2774 44.748 85.9964 42.7488C85.5318 42.4657 85.0682 42.1775 84.611 41.8867C84.6552 43.3942 84.7044 44.9296 84.7584 46.4925C84.8498 49.1338 82.7824 51.3491 80.1409 51.4405C77.4993 51.5318 75.2838 49.4647 75.1924 46.8234C75.0823 43.6379 74.9922 40.5616 74.9223 37.5988C74.6113 24.4111 74.6983 13.4198 75.1981 5.04902ZM116.391 33.2766C115.418 33.0526 114.667 33.148 113.904 33.5374C113.99 34.4155 114.081 35.2751 114.177 36.1121C114.437 36.01 114.68 35.9085 114.905 35.8077C115.279 35.6408 115.565 35.4933 115.773 35.3711C115.945 35.2702 116.021 35.2115 116.031 35.2039C116.186 35.0637 116.444 34.7512 116.657 34.3052C116.828 33.9464 116.903 33.644 116.926 33.4424C116.812 33.3935 116.64 33.3338 116.391 33.2766ZM142.123 21.7066C142.046 21.7278 141.962 21.7529 141.871 21.7829C140.275 22.3131 138.542 23.7271 137.792 25.4181C137.158 26.8491 136.634 28.2583 136.319 29.6918C136.83 29.4562 137.475 29.0498 138.245 28.3385C140.327 26.4147 141.369 24.9995 141.837 23.8848C142.116 23.2201 142.243 22.5492 142.123 21.7066Z" fill="#F5900C"/>
<path d="M29.1759 3.63937C29.7343 3.63937 32.5659 3.90523 33.9119 4.03816C39.7945 4.88557 48.6682 7.87643 50.9614 9.27217C53.2546 10.6679 56.9935 14.3068 59.0375 16.3505C61.0814 18.3943 64.3218 22.083 65.5681 24.0271C66.8144 25.9712 67.8613 28.6629 68.1604 30.0088C68.4596 31.3547 68.659 32.3517 69.0079 34.196C69.3569 36.0404 69.8554 39.1808 68.8584 42.8197C67.8613 46.4586 64.92 49.3497 62.4274 50.1473C59.9348 50.9449 56.0463 52.6895 54.5009 53.4372C52.9555 54.185 50.1638 55.6804 47.4219 56.777C44.68 57.8737 42.5364 58.422 35.9559 58.422C30.6915 58.422 26.4839 55.5973 25.0382 54.185C21.1996 51.2772 13.3927 45.3121 12.8743 44.7139C12.2262 43.9662 10.3816 41.2744 9.53415 40.1279C8.68666 38.9814 6.74242 36.6884 5.44627 35.3425C4.15011 33.9966 2.20586 31.3049 1.65749 30.3577C1.10911 29.4106 -0.137196 27.1176 0.012361 24.9243C0.161918 22.7311 0.710293 19.6405 0.959554 18.6435C1.20882 17.6466 2.10616 16.1013 2.95365 14.2071C3.80113 12.3129 5.79523 10.1694 7.88902 8.27521C9.98282 6.381 13.6719 4.88557 14.8185 4.48678C15.7358 4.16776 17.361 4.05477 18.0589 4.03816L27.0323 3.78892C27.5142 3.73907 28.6176 3.63937 29.1759 3.63937Z" fill="#FFCC4E"/>
<path d="M49.2555 16.1428C51.3251 15.8339 53.2532 17.2611 53.5621 19.3305C53.871 21.3999 52.4436 23.3278 50.3741 23.6367C46.9489 24.1478 39.702 25.0024 35.0785 25.4547C32.996 25.6584 31.1425 24.1355 30.9388 22.0531C30.7351 19.9708 32.2581 18.1176 34.3406 17.9138C38.8899 17.4688 46.0005 16.6286 49.2555 16.1428Z" fill="#664500"/>
<path d="M22.476 1.96168C23.8477 1.36316 25.4433 1.62814 26.5479 2.63794C28.0035 3.96865 31.3457 6.56912 33.7741 10.2115C34.9348 11.9524 34.4643 14.3045 32.7233 15.4651C30.9822 16.6256 28.6299 16.1551 27.4692 14.4143C26.2337 12.5612 24.7602 11.1778 23.2878 9.87413L20.0229 11.2988C19.9982 11.3095 19.9734 11.3201 19.9485 11.3303L14.6143 13.5236C12.6791 14.3194 10.4651 13.3957 9.6693 11.4607C8.8735 9.52563 9.79719 7.31186 11.7324 6.51613L17.0302 4.33782L22.476 1.96168Z" fill="#664500"/>
<path d="M25.8857 15.5031C25.8857 17.5954 24.1894 19.2916 22.0969 19.2916C20.0044 19.2916 18.3082 17.5954 18.3082 15.5031C18.3082 13.4108 20.0044 11.7147 22.0969 11.7147C24.1894 11.7147 25.8857 13.4108 25.8857 15.5031Z" fill="#664500"/>
<path d="M46.8237 25.4727C46.8237 27.565 45.1274 29.2611 43.0349 29.2611C40.9424 29.2611 39.2461 27.565 39.2461 25.4727C39.2461 23.3804 40.9424 21.6842 43.0349 21.6842C45.1274 21.6842 46.8237 23.3804 46.8237 25.4727Z" fill="#664500"/>
<path d="M17.0929 28.2245C17.6379 26.2044 19.7175 25.0086 21.7377 25.5536C32.6544 28.4983 40.4822 31.568 43.3016 32.6553C46.629 33.9386 56.4707 36.7969 62.6464 38.7009C64.646 39.3174 65.7672 41.438 65.1507 43.4374C64.5342 45.4368 62.4133 46.5579 60.4138 45.9415C54.6249 44.1567 44.2267 41.133 40.5747 39.7245C37.8106 38.6585 30.2839 35.7066 19.7641 32.8689C17.7438 32.324 16.5479 30.2446 17.0929 28.2245Z" fill="#664500"/>
<path d="M14.2414 33.0157C16.1048 32.0638 18.3871 32.8026 19.3391 34.6658C19.7202 35.4117 20.1592 36.4607 20.558 37.6855H20.5581C20.5589 37.688 20.5596 37.6906 20.5605 37.6932C20.5626 37.6997 20.5649 37.7063 20.567 37.7128C20.992 39.0229 21.4095 40.6535 21.6401 42.4451C27.6031 42.5425 35.636 42.2015 44.2081 41.5833C46.2952 41.4328 48.1091 43.0025 48.2596 45.0894C48.4101 47.1763 46.8402 48.99 44.7532 49.1405C40.1273 49.4741 35.5867 49.7333 31.3902 49.8856L31.5836 50.0341C33.243 51.3086 33.555 53.6869 32.2804 55.3462C31.0057 57.0055 28.6271 57.3174 26.9677 56.0429L24.4162 54.0831C23.2716 55.1771 21.5132 55.4742 20.0344 54.6967C18.7198 54.0054 18.1227 53.7611 16.9053 53.1392C16.0031 52.6784 14.7842 52.018 13.8248 51.0218C12.6773 49.8303 12.0072 48.2855 12.0545 46.4552C12.0948 44.9011 12.6502 43.3805 13.327 41.9701C13.3334 41.9466 13.3501 41.8809 13.3673 41.7634C13.3986 41.5486 13.4151 41.2708 13.4109 40.9575C13.4067 40.6488 13.3833 40.36 13.3555 40.1409C13.3449 40.0578 13.3347 39.9953 13.3274 39.9541C13.0395 39.0821 12.7576 38.4387 12.5911 38.1129C11.6392 36.2497 12.378 33.9675 14.2414 33.0157Z" fill="#F5900C"/>
</svg>
